<?xml version="1.0" encoding="UTF-8"?>
<!DOCTYPE svg PUBLIC "-//W3C//DTD SVG 1.1//EN" "http://www.w3.org/Graphics/SVG/1.1/DTD/svg11.dtd">
<!-- Creator: CorelDRAW 2021 (64-Bit) -->
<svg class="detalhes_camisa" xmlns="http://www.w3.org/2000/svg" xml:space="preserve" width="342px" height="500px" version="1.1" shape-rendering="geometricPrecision" text-rendering="geometricPrecision" image-rendering="optimizeQuality" fill-rule="evenodd" clip-rule="evenodd" viewBox="0 0 322.207 471.148" xmlns:xlink="http://www.w3.org/1999/xlink" xmlns:xodm="http://www.corel.com/coreldraw/odm/2003">
	<g class="gola">
		<path fill="#fff" id="golaEE" d="M154.541 19.774c4.359,0.011 8.402,0.031 12.388,0.026 3.986,-0.005 7.916,-0.036 11.902,-0.036 3.986,0 8.03,0.031 10.951,0.083 2.921,0.051 4.72,0.124 6.535,0.331 1.815,0.207 3.645,0.548 4.929,0.937 1.283,0.389 2.02,0.826 2.598,1.069 0.174,0.073 0.335,0.129 0.485,0.172 -0.09,-0.083 -0.107,-0.13 -0.12,-0.164 -0.036,-0.098 -0.036,-0.104 -0.37,-0.843 -0.333,-0.74 -1,-2.213 -1.561,-3.803 -0.561,-1.59 -1.016,-3.296 -1.399,-4.894 -0.383,-1.597 -0.693,-3.086 -1.106,-4.224 -0.414,-1.137 -0.931,-1.923 -1.831,-2.781 -0.899,-0.859 -2.181,-1.789 -4.001,-2.586 -1.82,-0.796 -4.178,-1.458 -6.97,-1.928 -2.792,-0.471 -6.018,-0.75 -9.911,-0.92 -3.893,-0.171 -8.454,-0.233 -13.174,-0.207 -4.721,0.026 -9.602,0.139 -13.758,0.31 -4.157,0.171 -7.59,0.398 -10.512,0.905 -2.921,0.506 -5.33,1.292 -6.995,2.006 -1.665,0.713 -2.585,1.354 -3.34,2.006 -0.755,0.651 -1.344,1.313 -1.846,2.554 -0.501,1.241 -0.915,3.061 -1.442,4.989 -0.528,1.929 -1.169,3.966 -1.761,5.556 -0.592,1.59 -1.135,2.732 -1.437,3.317 -0.303,0.584 -0.365,0.61 -0.385,0.669 -0.018,0.05 -0.006,0.124 -0.051,0.199 0.161,-0.059 0.389,-0.154 0.756,-0.315 0.745,-0.329 2.066,-0.933 3.363,-1.35 1.297,-0.416 2.568,-0.643 4.957,-0.793 2.389,-0.15 5.894,-0.223 9.984,-0.259 4.09,-0.036 8.763,-0.036 13.122,-0.026z"/>
	</g>
	<g class="punho">	
		<path d="M266.091 174.546c-2.238,-0.256 -4.356,-0.684 -6.451,-1.146 -0.117,0.661 -0.223,1.298 -0.321,1.847 -0.21,1.174 -0.385,1.945 -0.771,3.96 -0.373,1.95 -0.943,5.065 -1.614,8.789 0.566,0.372 1.146,0.723 1.755,1.029 1.126,0.565 2.351,0.973 4.228,1.345 1.878,0.372 4.408,0.708 7.787,0.814 3.379,0.105 7.608,-0.02 11.88,-0.326 4.272,-0.307 8.587,-0.794 13.143,-1.647 4.555,-0.853 9.35,-2.072 13.269,-3.245 3.918,-1.174 6.958,-2.301 9.009,-3.111 2.052,-0.809 3.114,-1.3 3.675,-2.032 0.005,-0.006 0.009,-0.012 0.014,-0.019 0.548,-0.729 0.605,-1.696 0.412,-3.046 -0.178,-1.238 -0.566,-2.799 -0.835,-4.67 -0.027,-0.189 -0.053,-0.38 -0.077,-0.575 -0.266,-2.129 -0.346,-4.634 -0.391,-6.543 -0.002,-0.084 -0.004,-0.168 -0.006,-0.25 -0.028,-0.419 -0.057,-0.842 -0.086,-1.268 -0.018,-0.261 -0.036,-0.522 -0.054,-0.786 -1.559,0.771 -3.179,1.568 -4.969,2.435 -2.821,1.367 -6.063,2.909 -9.821,4.17 -3.759,1.262 -8.034,2.243 -11.749,2.935 -3.715,0.692 -6.869,1.095 -10.005,1.34 -3.137,0.246 -6.256,0.333 -9.287,0.351 -3.031,0.017 -5.975,-0.035 -8.735,-0.351zm-264.004 -12.387c-0.164,-0.109 -0.327,-0.218 -0.489,-0.327 -0.098,0.934 -0.211,2.14 -0.23,3.105 -0.019,0.97 0.057,1.697 0.038,2.757 -0.019,1.06 -0.132,2.453 -0.363,3.911 -0.232,1.458 -0.58,2.98 -0.792,3.987 -0.212,1.007 -0.288,1.5 -0.234,2.037 0.048,0.488 0.201,1.013 0.54,1.473 0.035,0.048 0.072,0.095 0.111,0.14 0.416,0.493 1.067,0.894 1.654,1.152 0.587,0.257 1.11,0.371 3.034,1.082 1.923,0.712 5.247,2.022 9.03,3.132 3.783,1.109 8.024,2.018 11.083,2.582 3.06,0.565 4.938,0.784 6.838,1.007 1.901,0.224 3.825,0.451 6.343,0.614 2.518,0.163 5.63,0.261 8.05,0.265 2.419,0.004 4.146,-0.087 5.827,-0.216 1.681,-0.129 3.317,-0.295 4.741,-0.553 1.424,-0.257 2.635,-0.606 3.582,-1.052 0.946,-0.447 1.628,-0.992 2.105,-1.451 0.477,-0.458 0.75,-0.829 0.909,-1.325 0.159,-0.496 0.204,-1.117 0.174,-2.719 -0.03,-1.601 -0.136,-4.184 -0.121,-6.395 0.001,-0.209 0.004,-0.416 0.007,-0.618 0.034,-1.937 0.156,-3.552 0.273,-4.683 0.017,-0.167 0.034,-0.324 0.051,-0.471 -0.278,0.256 -0.582,0.516 -1.003,0.802 -0.089,0.06 -0.183,0.122 -0.284,0.185 -0.709,0.443 -1.723,0.95 -3.37,1.364 -1.647,0.415 -3.928,0.738 -6.738,0.945 -2.811,0.207 -6.151,0.299 -9.526,0.196 -3.375,-0.104 -6.784,-0.403 -9.998,-0.806 -3.213,-0.403 -6.231,-0.91 -9.295,-1.567 -3.064,-0.656 -6.174,-1.463 -9.243,-2.5 -3.07,-1.036 -6.1,-2.303 -8.541,-3.576 -1.581,-0.824 -2.915,-1.65 -4.163,-2.477z"/>
	</g>	
	<g class="friso">
		<path d="M271.576 171.48c-3.128,-0.035 -5.949,-0.193 -8.691,-0.666 -0.869,-0.149 -1.73,-0.331 -2.585,-0.534 -0.077,0.281 -0.149,0.572 -0.219,0.876 -0.163,0.713 -0.309,1.493 -0.441,2.244 2.095,0.462 4.213,0.89 6.451,1.146 2.76,0.316 5.704,0.368 8.735,0.351 3.031,-0.018 6.15,-0.105 9.287,-0.351 3.136,-0.245 6.29,-0.648 10.005,-1.34 3.715,-0.692 7.99,-1.673 11.749,-2.935 3.758,-1.261 7,-2.803 9.821,-4.17 1.79,-0.867 3.41,-1.664 4.969,-2.435 -0.071,-1.028 -0.145,-2.076 -0.221,-3.146 -1.398,0.764 -2.867,1.525 -4.485,2.278 -3.032,1.411 -6.589,2.795 -9.883,3.89 -3.294,1.095 -6.325,1.901 -9.094,2.506 -2.768,0.604 -5.274,1.007 -7.797,1.331 -2.523,0.324 -5.064,0.57 -8.052,0.736 -2.987,0.166 -6.421,0.254 -9.549,0.219zm-206.974 -3.748c-0.011,-0.561 -0.022,-1.121 -0.028,-1.478 -0.002,-0.086 -0.003,-0.16 -0.003,-0.224 -0.015,-0.131 -0.028,-0.262 -0.042,-0.392 -0.032,0.042 -0.092,0.12 -0.202,0.263 -0.235,0.305 -0.696,0.905 -1.53,1.508 -0.025,0.018 -0.05,0.036 -0.076,0.053 -0.881,0.621 -2.161,1.233 -3.707,1.627 -1.547,0.393 -3.36,0.567 -5.459,0.721 -2.099,0.154 -4.485,0.287 -7.977,0.205 -3.492,-0.081 -8.089,-0.378 -12.509,-0.944 -4.42,-0.567 -8.662,-1.403 -12.486,-2.405 -3.824,-1.002 -7.231,-2.169 -9.906,-3.228 -2.675,-1.058 -4.617,-2.007 -6.255,-2.926 -0.744,-0.417 -1.425,-0.828 -2.072,-1.236 -0.127,-0.079 -0.252,-0.159 -0.377,-0.239 -0.031,0.186 -0.061,0.365 -0.09,0.546 -0.102,0.644 -0.185,1.303 -0.284,2.238 0,0.004 -0.001,0.007 -0.001,0.011 0.162,0.109 0.325,0.218 0.489,0.327 1.248,0.827 2.582,1.653 4.163,2.477 2.441,1.273 5.471,2.54 8.541,3.576 3.069,1.037 6.179,1.844 9.243,2.5 3.064,0.657 6.082,1.164 9.295,1.567 3.214,0.403 6.623,0.702 9.998,0.806 3.375,0.103 6.715,0.011 9.526,-0.196 2.81,-0.207 5.091,-0.53 6.738,-0.945 1.647,-0.414 2.661,-0.921 3.37,-1.364 0.101,-0.063 0.195,-0.125 0.284,-0.185 0.421,-0.286 0.725,-0.546 1.003,-0.802 0.109,-0.949 0.207,-1.481 0.259,-1.767 0.061,-0.329 0.061,-0.329 0.061,-0.329 0,0 0,0 0.034,0.235z"/>
	</g>
</svg>