<?xml version="1.0" encoding="UTF-8"?>
<!DOCTYPE svg PUBLIC "-//W3C//DTD SVG 1.1//EN" "http://www.w3.org/Graphics/SVG/1.1/DTD/svg11.dtd">
<!-- Creator: CorelDRAW 2021 (64-Bit) -->
<svg version="1.1" class="detalhes_camisa" xmlns="http://www.w3.org/2000/svg" xmlns:xlink="http://www.w3.org/1999/xlink" xmlns:xodm="http://www.corel.com/coreldraw/odm/2003" 
	width="337px" height="500px" viewBox="0 0 346.624 513.92" xml:space="preserve" fill-rule="evenodd" clip-rule="evenodd"
	shape-rendering="geometricPrecision" text-rendering="geometricPrecision" image-rendering="optimizeQuality">
	<g class="vista_2">
		<path fill="#fff" id="vista2" d="M166.086 253.6c0.193,-34.151 0.375,-79.375 0.908,-113.152 0.533,-33.777 1.418,-56.106 1.826,-68.825 0.409,-12.718 0.341,-15.827 0.647,-18.017 0.307,-2.19 0.987,-3.46 1.869,-4.382 0.883,-0.922 1.966,-1.495 2.888,-1.915 0.794,-0.362 1.469,-0.61 2.126,-0.842 -0.291,-0.257 -0.418,-0.26 -0.627,-0.275 -0.309,-0.023 -0.797,-0.074 -1.18,-0.034 -0.383,0.039 -0.661,0.17 -1.327,0.054 -0.667,-0.117 -1.722,-0.48 -2.315,-0.695 -0.593,-0.216 -0.723,-0.284 -0.998,-0.1 -0.275,0.185 -0.695,0.622 -1.439,1.793 -0.743,1.172 -1.809,3.078 -2.938,5.716 -1.129,2.638 -2.32,6.007 -3.449,9.621 -0.481,1.54 -0.951,3.125 -1.38,4.597 -0.141,4.936 -0.283,10.222 -0.444,18.508 -0.181,9.383 -0.385,22.613 -0.51,36.319 -0.125,13.706 -0.17,27.888 -0.187,43.761 -0.017,15.873 -0.006,33.436 0.136,58.068 0.142,24.632 0.414,56.333 0.562,82.803 0.147,26.47 0.17,47.709 0.318,74.486 0.147,26.776 0.419,59.089 0.692,82.291 0.259,22.093 0.518,35.926 0.778,49.363 0.256,0.031 0.493,0.055 0.799,0.06 0.596,0.012 1.453,-0.045 1.867,-0.067 0.157,-0.009 0.25,-0.013 0.311,-0.003 0.042,-9.71 0.088,-19.95 0.183,-36.98 0.102,-18.471 0.261,-44.93 0.317,-69.902 0.057,-24.972 0.011,-48.458 0.091,-71.74 0.079,-23.282 0.284,-46.36 0.476,-80.511z"/>
	</g>
	<g class="vista">
		<path fill="#fff00000" id="vista3" d="M175.632 401.062c-2.073,0 -3.753,-1.654 -3.753,-3.693 0,-2.04 1.68,-3.693 3.753,-3.693 2.073,0 3.753,1.653 3.753,3.693 0,2.039 -1.68,3.693 -3.753,3.693zm-10.43 74.691c-0.095,17.03 -0.141,27.27 -0.183,36.98 0.101,0.015 0.114,0.066 0.18,0.19 0.105,0.198 0.343,0.584 2.348,0.785 2.006,0.202 5.778,0.219 9.264,0.21 3.486,-0.008 6.686,-0.042 8.416,-0.11 1.484,-0.059 1.887,-0.142 2.067,-0.207 0.332,-24.703 0.658,-49.377 0.736,-72.872 0.079,-24.065 -0.103,-46.893 0.034,-78.594 0.136,-31.7 0.59,-72.273 0.953,-104.314 0.363,-32.041 0.635,-55.549 0.817,-80.385 0.181,-24.836 0.272,-51 0.533,-68.496 0.249,-16.651 0.651,-25.45 1.061,-33.87 -0.66,0.554 -0.904,0.572 -1.14,0.502 -0.363,-0.108 -0.703,-0.425 -1.594,-2.729 -0.89,-2.303 -2.331,-6.592 -3.803,-10.52 -0.947,-2.525 -1.905,-4.9 -2.852,-6.973 -0.51,1.451 -1.909,2.493 -3.554,2.493 -2.077,0 -3.761,-1.661 -3.761,-3.71 0,-2.049 1.684,-3.71 3.761,-3.71 0.359,0 0.707,0.049 1.036,0.142 -1.069,-1.709 -2.025,-2.866 -2.607,-3.517 -0.244,-0.273 -0.423,-0.457 -0.564,-0.581 -0.657,0.232 -1.332,0.48 -2.126,0.842 -0.922,0.42 -2.005,0.993 -2.888,1.915 -0.882,0.922 -1.562,2.192 -1.869,4.382 -0.306,2.19 -0.238,5.299 -0.647,18.017 -0.408,12.719 -1.293,35.048 -1.826,68.825 -0.533,33.777 -0.715,79.001 -0.908,113.152 -0.192,34.151 -0.397,57.229 -0.476,80.511 -0.08,23.282 -0.034,46.768 -0.091,71.74 -0.056,24.972 -0.215,51.431 -0.317,69.902zm10.473 -133.593c-2.162,0 -3.914,-1.672 -3.914,-3.736 0,-2.063 1.752,-3.735 3.914,-3.735 2.162,0 3.914,1.672 3.914,3.735 0,2.064 -1.752,3.736 -3.914,3.736zm4.272 -64.442c0,2.082 -1.737,3.77 -3.88,3.77 -2.143,0 -3.88,-1.688 -3.88,-3.77 0,-2.082 1.737,-3.77 3.88,-3.77 2.143,0 3.88,1.688 3.88,3.77zm0.222 -62.255c0,2.092 -1.756,3.787 -3.923,3.787 -2.167,0 -3.923,-1.695 -3.923,-3.787 0,-2.091 1.756,-3.787 3.923,-3.787 2.167,0 3.923,1.696 3.923,3.787zm0.817 -63.446c0,2.12 -1.71,3.838 -3.82,3.838 -2.111,0 -3.821,-1.718 -3.821,-3.838 0,-2.12 1.71,-3.838 3.821,-3.838 2.11,0 3.82,1.718 3.82,3.838zm0.528 -55.337c0,2.143 -1.775,3.88 -3.965,3.88 -2.19,0 -3.966,-1.737 -3.966,-3.88 0,-2.143 1.776,-3.88 3.966,-3.88 2.19,0 3.965,1.737 3.965,3.88z"/>
	</g>
	<g class="golas">	
		<g class="gola">
			<path fill="#fff" id="golaE" d="M192.943 73.615c1.907,-1.963 5.333,-5.786 8.683,-10.013 3.35,-4.226 6.623,-8.855 9.02,-12.597 2.397,-3.741 3.917,-6.594 4.944,-9.071 1.027,-2.476 1.56,-4.575 1.832,-6.458 0.273,-1.884 0.284,-3.552 0.031,-4.944 -0.252,-1.393 -0.768,-2.511 -1.177,-3.259 -0.32,-0.587 -0.574,-0.946 -0.814,-1.257 -0.08,-0.062 -0.138,-0.131 -0.198,-0.251 -0.084,-0.171 -0.173,-0.448 -0.338,-0.96 -0.357,-1.112 -1.072,-3.336 -1.698,-5.557 -0.627,-2.221 -1.166,-4.439 -2.411,-6.495 -1.246,-2.057 -3.197,-3.951 -4.944,-5.358 -1.748,-1.407 -3.291,-2.327 -5.049,-3.16 -1.759,-0.834 -3.733,-1.583 -5.951,-2.156 -2.218,-0.573 -4.681,-0.97 -7.197,-1.307 -2.515,-0.338 -5.085,-0.616 -9.014,-0.721 -3.928,-0.105 -9.216,-0.037 -13.229,0.11 -4.014,0.148 -6.754,0.375 -9.65,0.815 -2.896,0.439 -5.948,1.092 -8.801,2.048 -2.854,0.955 -5.509,2.215 -7.594,3.645 -2.085,1.429 -3.599,3.029 -4.694,4.456 -1.095,1.426 -1.77,2.68 -2.301,4.169 -0.53,1.489 -0.916,3.214 -1.381,5.004 -0.465,1.79 -1.01,3.644 -1.313,4.598 -0.077,0.242 -0.139,0.425 -0.195,0.569 -0.076,0.196 -0.142,0.318 -0.224,0.411 -0.693,1.271 -1.363,2.525 -1.803,3.607 -0.487,1.199 -0.691,2.186 -0.493,4.172 0.199,1.985 0.8,4.969 2.457,8.305 1.656,3.335 4.368,7.023 7.074,10.637 2.706,3.613 5.406,7.153 8.634,10.693 3.228,3.54 6.983,7.08 9.054,9.009 2.07,1.929 2.456,2.246 2.853,2.388 0.397,0.142 0.806,0.108 1.101,-0.056 0.295,-0.165 0.476,-0.46 1.1,-2.536 0.358,-1.192 0.862,-2.969 1.44,-4.951 0.429,-1.472 0.899,-3.057 1.38,-4.597 1.129,-3.614 2.32,-6.983 3.449,-9.621 1.129,-2.638 2.195,-4.544 2.938,-5.716 0.744,-1.171 1.164,-1.608 1.439,-1.793 0.275,-0.184 0.405,-0.116 0.998,0.1 0.593,0.215 1.648,0.578 2.315,0.695 0.666,0.116 0.944,-0.015 1.327,-0.054 0.383,-0.04 0.871,0.011 1.18,0.034 0.209,0.015 0.336,0.018 0.627,0.275 0.141,0.124 0.32,0.308 0.564,0.581 0.752,0.84 2.125,2.525 3.563,5.152 1.438,2.626 2.942,6.194 4.414,10.123 1.472,3.928 2.913,8.217 3.803,10.52 0.891,2.304 1.231,2.621 1.594,2.729 0.236,0.07 0.48,0.052 1.14,-0.502 0.36,-0.302 0.843,-0.763 1.515,-1.455zm-18.201 -27.961c-0.173,0.064 -0.349,0.107 -0.59,0.087 -0.242,-0.02 -0.548,-0.102 -0.894,-0.22 -0.346,-0.118 -0.732,-0.271 -1.098,-0.446 -0.366,-0.176 -0.712,-0.375 -1.03,-0.542 -0.317,-0.168 -0.607,-0.304 -0.95,-0.446 -0.343,-0.141 -0.74,-0.289 -2.366,-1.143 -1.625,-0.854 -4.478,-2.414 -7.749,-4.263 -3.27,-1.85 -6.958,-3.988 -10.248,-6.039 -3.29,-2.051 -6.183,-4.014 -8.342,-5.662 -2.022,-1.543 -3.4,-2.811 -4.398,-3.989 -0.068,-0.079 -0.133,-0.158 -0.197,-0.237 -1.013,-1.245 -1.614,-2.402 -1.989,-3.571 -0.374,-1.168 -0.521,-2.348 -0.379,-3.421 0.141,-1.072 0.572,-2.036 1.298,-3.057 0.726,-1.022 1.748,-2.099 2.871,-3.098 1.123,-0.998 2.348,-1.917 4.09,-2.899 1.742,-0.981 4,-2.025 6.768,-2.944 2.769,-0.919 6.048,-1.713 10.541,-2.162 4.493,-0.448 10.199,-0.55 14.783,-0.499 4.584,0.051 8.045,0.256 11.278,0.693 3.234,0.436 6.24,1.106 8.935,1.957 2.695,0.851 5.077,1.883 7.171,3.21 2.093,1.328 3.897,2.95 5.162,4.46 1.265,1.509 1.991,2.904 2.366,4.067 0.374,1.163 0.397,2.093 0.113,3.086 -0.283,0.993 -0.873,2.048 -1.492,2.944 -0.396,0.575 -0.804,1.084 -1.438,1.735 -0.356,0.365 -0.783,0.775 -1.319,1.266 -1.492,1.367 -3.829,3.364 -6.841,5.532 -3.013,2.167 -6.7,4.504 -10.135,6.699 -3.435,2.196 -6.618,4.249 -8.736,5.571 -2.119,1.322 -3.174,1.912 -3.776,2.306 -0.601,0.394 -0.748,0.593 -0.907,0.735 -0.159,0.141 -0.329,0.227 -0.502,0.29z"/>
		</g>
		<g class="fundo_gola">	
			<path d="M179.927 42.323c2.118,-1.322 5.301,-3.375 8.736,-5.571 3.435,-2.195 7.122,-4.532 10.135,-6.699 3.012,-2.168 5.349,-4.165 6.841,-5.532 0.536,-0.491 0.963,-0.901 1.319,-1.266 -0.673,-0.287 -1.459,-0.576 -2.692,-0.867 -1.656,-0.391 -4.119,-0.788 -6.717,-1.123 -2.598,-0.335 -5.332,-0.607 -9.564,-0.8 -4.233,-0.193 -9.962,-0.306 -16.199,-0.315 -6.238,-0.009 -12.983,0.088 -18.188,0.423 -5.205,0.334 -8.87,0.908 -11.547,1.393 -2.11,0.382 -3.607,0.709 -4.974,1.025 0.998,1.178 2.376,2.446 4.398,3.989 2.159,1.648 5.052,3.611 8.342,5.662 3.29,2.051 6.978,4.189 10.248,6.039 3.271,1.849 6.124,3.409 7.749,4.263 1.626,0.854 2.023,1.002 2.366,1.143 0.343,0.142 0.633,0.278 0.95,0.446 0.318,0.167 0.664,0.366 1.03,0.542 0.366,0.175 0.752,0.328 1.098,0.446 0.346,0.118 0.652,0.2 0.894,0.22 0.241,0.02 0.417,-0.023 0.59,-0.087 0.173,-0.063 0.343,-0.149 0.502,-0.29 0.159,-0.142 0.306,-0.341 0.907,-0.735 0.602,-0.394 1.657,-0.984 3.776,-2.306z"/>
		</g>
		<g class="gola_2">	
			<path id="golaI" fill="#fff" d="M171.786 20.15c6.237,0.009 11.966,0.122 16.199,0.315 4.232,0.193 6.966,0.465 9.564,0.8 2.598,0.335 5.061,0.732 6.717,1.123 1.233,0.291 2.019,0.58 2.692,0.867 0.634,-0.651 1.042,-1.16 1.438,-1.735 0.619,-0.896 1.209,-1.951 1.492,-2.944 0.284,-0.993 0.261,-1.923 -0.113,-3.086 -0.375,-1.163 -1.101,-2.558 -2.366,-4.067 -1.265,-1.51 -3.069,-3.132 -5.162,-4.46 -2.094,-1.327 -4.476,-2.359 -7.171,-3.21 -2.695,-0.851 -5.701,-1.521 -8.935,-1.957 -3.233,-0.437 -6.694,-0.642 -11.278,-0.693 -4.584,-0.051 -10.29,0.051 -14.783,0.499 -4.493,0.449 -7.772,1.243 -10.541,2.162 -2.768,0.919 -5.026,1.963 -6.768,2.944 -1.742,0.982 -2.967,1.901 -4.09,2.899 -1.123,0.999 -2.145,2.076 -2.871,3.098 -0.726,1.021 -1.157,1.985 -1.298,3.057 -0.142,1.073 0.005,2.253 0.379,3.421 0.375,1.169 0.976,2.326 1.989,3.571 0.064,0.079 0.129,0.158 0.197,0.237 1.367,-0.316 2.864,-0.643 4.974,-1.025 2.677,-0.485 6.342,-1.059 11.547,-1.393 5.205,-0.335 11.95,-0.432 18.188,-0.423z"/>
		</g>	
	</g>
	<g class="punho" "#fff00000" id="punho2">	
		<path d="M287.688 183.4c-3.098,-0.234 -5.193,-0.725 -6.832,-1.369 -0.008,-0.003 -0.016,-0.007 -0.025,-0.01 -1.209,-0.478 -2.17,-1.039 -3.065,-1.622 0.004,0.289 0.01,0.572 0.021,0.834 0.044,1.048 0.155,1.776 0.272,3.326 0.117,1.55 0.24,3.922 0.302,5.663 0.061,1.741 0.061,2.851 0.094,3.695 0.033,0.844 0.098,1.422 0.331,1.982 0.14,0.335 0.34,0.664 0.593,0.975 0.17,0.208 0.363,0.407 0.577,0.596 0.537,0.471 1.208,0.872 2.308,1.268 1.101,0.396 2.63,0.788 4.379,1.012 1.748,0.224 3.716,0.28 6.145,0.298 2.429,0.019 5.32,0 8.896,-0.256 3.576,-0.256 7.838,-0.751 11.797,-1.455 3.958,-0.704 7.614,-1.618 11.129,-2.597 3.516,-0.979 6.892,-2.023 10.249,-3.226 3.357,-1.203 6.695,-2.565 8.569,-3.413 1.875,-0.849 2.285,-1.185 2.588,-1.562 0.089,-0.112 0.169,-0.227 0.24,-0.347 0.168,-0.287 0.281,-0.603 0.334,-0.968 0.074,-0.518 0.028,-1.133 -0.139,-2.071 -0.166,-0.938 -0.452,-2.198 -0.741,-3.522 -0.001,-0.006 -0.002,-0.011 -0.003,-0.017 -0.288,-1.319 -0.579,-2.701 -0.794,-4.103 -0.217,-1.407 -0.356,-2.834 -0.436,-4.019 -0.075,-1.128 -0.095,-2.036 -0.105,-2.527 -4.027,2.194 -8.018,4.306 -11.805,5.961 -4.617,2.017 -8.931,3.354 -14.466,4.518 -5.534,1.163 -12.288,2.153 -17.729,2.66 -5.441,0.507 -9.569,0.531 -12.684,0.296zm-219.266 4.968c-0.001,-0.172 -0.001,-0.218 -0.001,-0.255 -0.001,-0.031 -0.001,-0.055 0.007,-0.086 0.021,-1.342 0.045,-2.666 0.098,-3.754 0.055,-1.132 0.142,-2.008 0.155,-2.622 -0.916,0.994 -1.924,1.964 -3.904,2.676 -2.19,0.787 -5.568,1.258 -9.251,1.537 -3.684,0.279 -7.673,0.365 -12.882,-0.048 -5.209,-0.414 -11.638,-1.326 -17.22,-2.605 -5.583,-1.279 -10.32,-2.924 -14.269,-4.597 -3.262,-1.383 -5.988,-2.784 -8.62,-4.189 -0.273,-0.146 -0.544,-0.291 -0.815,-0.437 0,0.035 0,0.061 0,0.082 0,0.067 0,0.067 0.012,0.752 0.013,0.684 0.037,2.052 -0.08,3.556 -0.117,1.504 -0.376,3.143 -0.69,5.023 -0.314,1.88 -0.684,4 -0.857,5.473 -0.172,1.473 -0.148,2.299 0.185,2.952 0.186,0.364 0.467,0.674 0.949,1 0.383,0.26 0.894,0.529 1.585,0.843 1.559,0.709 4.036,1.645 6.57,2.521 2.533,0.875 5.121,1.688 7.975,2.483 2.853,0.796 5.972,1.572 10.095,2.33 4.124,0.758 9.252,1.498 13.806,1.874 4.555,0.376 8.536,0.388 11.699,0.257 3.161,-0.131 5.504,-0.405 7.51,-0.781 2.006,-0.376 3.676,-0.855 4.798,-1.357 1.123,-0.503 1.698,-1.03 2.152,-1.581 0.39,-0.472 0.689,-0.963 0.887,-1.576 0.033,-0.102 0.063,-0.207 0.09,-0.316 0.191,-0.766 0.239,-1.723 0.222,-2.563 -0.018,-0.841 -0.102,-1.566 -0.147,-2.645 -0.045,-1.08 -0.052,-2.514 -0.055,-3.278 -0.002,-0.331 -0.003,-0.537 -0.004,-0.669z"/>
	</g>
	<g class="botao">	
		<path fill="#fff" id="botao" d="M175.632 393.676c-2.073,0 -3.753,1.653 -3.753,3.693 0,2.039 1.68,3.693 3.753,3.693 2.073,0 3.753,-1.654 3.753,-3.693 0,-2.04 -1.68,-3.693 -3.753,-3.693zm-0.908 -339.543c0,2.049 1.684,3.71 3.761,3.71 1.645,0 3.044,-1.042 3.554,-2.493 -0.526,-1.153 -1.048,-2.212 -1.562,-3.15 -0.324,-0.593 -0.645,-1.137 -0.956,-1.635 -0.329,-0.093 -0.677,-0.142 -1.036,-0.142 -2.077,0 -3.761,1.661 -3.761,3.71zm2.825 46.427c2.19,0 3.965,-1.737 3.965,-3.88 0,-2.143 -1.775,-3.88 -3.965,-3.88 -2.19,0 -3.966,1.737 -3.966,3.88 0,2.143 1.776,3.88 3.966,3.88zm-0.383 55.295c2.11,0 3.82,-1.718 3.82,-3.838 0,-2.12 -1.71,-3.838 -3.82,-3.838 -2.111,0 -3.821,1.718 -3.821,3.838 0,2.12 1.71,3.838 3.821,3.838zm-0.92 63.395c2.167,0 3.923,-1.695 3.923,-3.787 0,-2.091 -1.756,-3.787 -3.923,-3.787 -2.167,0 -3.923,1.696 -3.923,3.787 0,2.092 1.756,3.787 3.923,3.787zm-0.179 62.238c2.143,0 3.88,-1.688 3.88,-3.77 0,-2.082 -1.737,-3.77 -3.88,-3.77 -2.143,0 -3.88,1.688 -3.88,3.77 0,2.082 1.737,3.77 3.88,3.77zm-0.392 60.672c2.162,0 3.914,-1.672 3.914,-3.736 0,-2.063 -1.752,-3.735 -3.914,-3.735 -2.162,0 -3.914,1.672 -3.914,3.735 0,2.064 1.752,3.736 3.914,3.736z"/>
	</g>	
</svg>